<svg width="360" height="600" viewBox="0 0 360 600" fill="none" xmlns="http://www.w3.org/2000/svg">
<g clip-path="url(#clip0_986_7)">
<path d="M168.078 593.853C169.988 593.155 171.77 592.159 173.354 590.903C180.96 585.474 184.758 582.76 186.165 581.56C189.873 578.413 195.51 574.873 206.764 567.792C219.676 559.678 226.861 555.154 237.663 550.335C244.523 547.288 251.571 544.66 258.764 542.468C268.295 539.488 278.034 537.187 287.904 535.583C289.19 532.466 290.085 529.83 290.667 527.961C292.828 521.077 293.903 517.625 293.933 514.685C293.933 512.718 293.712 510.446 295.189 508.538C295.926 507.832 296.522 506.999 296.948 506.079C297.339 504.88 297.339 503.591 296.948 502.391C296.676 501.408 298.334 506.945 295.691 488.623C294.255 478.621 293.531 473.625 292.677 471.658C291.26 468.373 289.08 463.535 284.136 461.332C281.533 460.171 279.172 460.201 276.349 460.348C267.657 460.811 262.783 461.066 254.996 463.299C248.776 465.079 240.928 467.321 232.638 473.133C230.388 474.717 228.207 476.477 216.059 489.606C202.453 504.309 203.88 503.513 201.238 505.834C188.235 517.271 172.721 519.995 167.576 520.831C150.222 523.654 136.748 519.346 130.146 517.143C120.932 514.075 115.073 510.259 103.267 502.637C91.46 495.015 83.6525 488.269 68.0977 474.855C59.1041 466.718 50.9431 457.743 43.7306 448.055C41.6707 445.292 39.7113 442.282 39.2089 438.221C39.0481 436.834 39.2089 436.559 39.4601 429.124C39.641 423.98 39.5707 423.872 39.7113 422.485C40.0736 419.212 40.8325 415.994 41.9722 412.896C47.6997 396.237 47.1571 395.43 51.5181 384.868C55.1756 376.017 58.4212 369.644 59.3055 367.903C62.8583 360.746 67.062 353.916 71.8658 347.496C75.6902 342.354 80.359 337.868 85.6822 334.22C95.8913 327.424 108.592 326.598 108.793 327.335C108.934 327.857 102.573 328.81 94.2233 333.974C90.3145 336.393 90.3949 336.993 86.1847 339.383C83.4817 340.917 81.7936 341.605 80.4069 343.562C79.2501 345.322 78.6393 347.371 78.6484 349.463C78.2615 355.782 78.5072 362.123 79.382 368.395C80.5793 375.83 82.4283 383.152 84.9085 390.277C86.7041 395.703 88.9734 400.967 91.6911 406.012C95.1075 412.247 96.444 412.896 104.754 425.681C108.542 431.504 110.26 434.434 110.532 434.287C111.004 434.041 106.703 425.082 103.498 418.797C97.3483 406.74 96.4641 406.848 93.4496 400.357C90.4351 393.866 89.0082 387.739 86.1646 375.771C83.1501 362.986 82.8386 357.36 82.8989 353.151C82.9444 350.024 83.1962 346.903 83.6525 343.808L91.9423 339.383L115.053 327.119L91.2088 279.637H71.1122C71.0419 276.264 70.9012 271.524 70.6098 265.869C70.238 258.493 69.9265 252.189 69.1026 245.216C68.0977 237.073 65.8871 221.033 64.5808 221.121C62.6817 221.259 63.4353 255.857 63.8272 274.228C63.9578 280.129 63.5258 286.03 64.0784 291.931C64.4603 295.865 65.023 299.444 64.0784 304.47C63.6363 306.82 63.2947 307.233 61.8176 312.338C60.5515 316.734 60.25 318.366 58.8031 324.139C56.6527 332.734 55.5776 337.032 54.7838 339.137C53.1057 343.621 50.5434 347.349 45.4891 354.626C39.0883 363.851 35.8829 368.464 30.4167 374.05C25.6017 378.942 20.4841 383.54 15.093 387.818C11.0134 390.985 7.3056 393.503 4.29111 398.636C2.78253 401.25 1.6754 404.066 1.00532 406.996C-0.0792594 410.764 -0.16571 414.741 0.754116 418.551C1.54696 421.212 2.82342 423.71 4.52222 425.927C7.53671 430.264 9.00376 430.156 11.8072 434.287C13.4674 436.705 14.7383 439.358 15.5753 442.154C16.1883 444.289 15.9974 444.711 16.329 453.218C16.5199 458.136 16.0476 463.053 16.5802 467.97C16.7208 469.278 16.9721 471.157 16.329 471.412C15.6859 471.668 14.1384 469.731 12.5609 467.479C8.77265 462.05 6.86348 459.355 5.27585 455.923C1.64841 448.055 1.25653 442.558 0.502909 442.646C-0.250713 442.735 -0.110037 448.252 0.251702 453.464C1.04552 465.01 2.603 466.77 4.01981 478.297C5.28589 488.574 4.63276 491.947 7.78792 497.474C9.37777 500.094 11.3212 502.492 13.5657 504.604C28.2864 519.946 24.9604 517.389 31.1502 523.29C43.1277 534.777 54.2612 543.077 66.068 551.81C77.8747 560.544 74.7196 557.524 93.4496 570.988C105.196 579.436 111.034 583.93 121.334 589.428C127.876 593.103 134.887 595.914 142.184 597.787C147.123 599.001 152.171 599.742 157.256 600C158.088 598.148 159.494 596.6 161.276 595.574C163.506 594.375 165.024 594.886 168.078 593.853Z" fill="#63C1C7"/>
<path d="M291.321 525.886C292.208 523.885 292.826 521.779 293.159 519.622C293.672 516.209 293.099 514.891 293.983 511.98C294.747 509.443 295.521 509.325 296.425 507.063C297.33 504.801 297.43 502.923 296.767 496.56C296.164 490.846 295.903 491.013 295.139 484.758C294.426 478.857 294.405 476.654 293.129 472.957C292.503 471.154 291.72 469.406 290.788 467.734L291.321 525.886Z" fill="#C3DFE2"/>
<path d="M57.1745 449.894C57.1745 449.894 57.1745 449.894 57.2345 449.963C57.1683 449.874 57.1113 449.778 57.0645 449.678C57.091 449.754 57.128 449.827 57.1745 449.894V449.894Z" fill="#63C1C7"/>
<path d="M51.4678 444.328C51.5727 444.633 51.7644 444.903 52.0204 445.105C52.1338 445.185 52.255 445.254 52.3822 445.311C51.9855 445.078 51.6676 444.736 51.4678 444.328V444.328Z" fill="#63C1C7"/>
<path d="M89.9522 487.148C95.652 491.803 101.595 496.166 107.758 500.218C101.311 495.939 95.0901 491.344 89.1182 486.449L89.9522 487.148Z" fill="#63C1C7"/>
<path d="M162.933 517.143C168.563 516.515 174.09 515.193 179.382 513.209C180.146 512.924 181.04 512.57 182.035 512.147C175.447 514.806 168.509 516.541 161.426 517.301L162.933 517.143Z" fill="#63C1C7"/>
<path d="M90.5858 481.247C91.1692 480.953 91.6488 480.494 91.9624 479.929C90.3546 481.198 89.7517 481.631 88.7871 481.798C89.4069 481.685 90.0108 481.5 90.5858 481.247V481.247Z" fill="#63C1C7"/>
<path d="M85.1592 480.844C85.1592 480.893 85.2496 480.952 85.3099 481.001C85.7583 481.362 86.2827 481.622 86.8455 481.761C87.4083 481.9 87.9957 481.916 88.5655 481.808C87.9604 481.891 87.3442 481.848 86.7572 481.682C86.1702 481.516 85.6257 481.23 85.1592 480.844V480.844Z" fill="#63C1C7"/>
<path d="M62.9023 457.064C62.9326 457.285 63.0389 457.49 63.2038 457.644C63.3511 457.789 63.5407 457.885 63.7464 457.919C63.5552 457.838 63.3822 457.721 63.2374 457.574C63.0926 457.427 62.9787 457.254 62.9023 457.064V457.064Z" fill="#63C1C7"/>
<path d="M128.939 512C130.805 512.836 132.717 513.568 134.667 514.193C138.06 515.271 141.534 516.089 145.057 516.642C139.528 515.727 134.131 514.168 128.98 512H128.939Z" fill="#63C1C7"/>
<path d="M197.6 503.001C198.997 501.91 200.253 500.828 201.458 499.707C198.343 502.518 194.981 505.056 191.41 507.289C193.556 505.978 195.623 504.546 197.6 503.001V503.001Z" fill="#63C1C7"/>
<path d="M273.313 457.182L272.419 457.329L273.313 457.182Z" fill="#63C1C7"/>
<path d="M213.426 486.607C215.375 484.276 216.35 482.919 217.254 481.749C215.646 483.617 215.978 483.46 213.426 486.607Z" fill="#63C1C7"/>
<path d="M76.9795 472.583C77.0277 472.646 77.0815 472.706 77.1403 472.76C77.5327 473.055 77.9838 473.268 78.4648 473.383C78.9459 473.498 79.4462 473.514 79.9337 473.429C79.4083 473.494 78.8748 473.453 78.3664 473.307C77.8581 473.162 77.3859 472.915 76.9795 472.583V472.583Z" fill="#63C1C7"/>
<path d="M260.803 458.745C260.11 458.854 259.397 458.972 258.663 459.109C259.326 458.991 260.03 458.863 260.803 458.745Z" fill="#63C1C7"/>
<path d="M229.553 470.822C231.823 469.339 234.171 467.974 236.587 466.731C240.041 464.861 243.643 463.266 247.358 461.961V461.961C241.029 464.086 235.036 467.069 229.553 470.822V470.822Z" fill="#63C1C7"/>
<path d="M265.616 458.047C267.314 457.841 269.073 457.654 270.821 457.516C271.304 457.516 271.826 457.427 272.268 457.359C270.64 457.477 268.359 457.683 265.646 458.047H265.616Z" fill="#63C1C7"/>
<path d="M50.7639 441.043C51.5879 441.427 51.0151 443.108 51.4673 444.318C51.4807 443.623 51.6818 442.945 52.0501 442.351C52.9042 441.053 54.321 440.837 56.9235 440.138C61.2543 438.958 60.9429 438.565 63.5454 438.171C65.4545 437.876 68.3786 437.424 68.9513 438.506C69.3533 439.283 68.4087 440.551 67.8159 441.151C66.811 442.204 65.8766 442.233 63.5454 442.99C60.34 444.043 58.2901 445.213 56.0393 445.547C55.2443 445.629 54.4428 445.629 53.6478 445.547C54.2105 445.606 54.9038 445.636 55.7881 445.675C56.9738 445.734 57.2953 445.675 57.5465 445.921C57.7977 446.167 57.6872 446.983 57.4159 447.681C57.9888 447.143 58.6746 446.734 59.4256 446.482C61.184 445.724 62.9324 444.947 64.7009 444.2C67.7154 442.951 67.5345 442.705 68.9111 442.39C69.3231 442.302 73.2319 441.407 74.0559 442.941C74.508 443.767 73.875 445.036 73.242 445.744C72.5216 446.424 71.6132 446.882 70.6294 447.062C67.3738 448.045 67.9063 448.793 64.6004 449.825C62.8329 450.315 61.0007 450.543 59.1643 450.504C59.9599 450.555 60.7128 450.875 61.2945 451.409C61.9275 452.059 62.3625 452.87 62.5506 453.749C62.8346 454.844 62.9464 455.975 62.8822 457.103C62.8087 456.069 63.065 455.038 63.6157 454.153C64.2693 453.311 65.1207 452.636 66.0976 452.186C67.846 451.202 69.2628 450.465 70.3079 449.973C71.7053 449.229 73.164 448.6 74.6688 448.094C75.4023 447.937 78.6881 447.219 79.6025 448.645C80.1351 449.53 79.6025 450.976 78.7585 451.782C78.1175 452.327 77.335 452.688 76.4976 452.825C75.8545 453.022 76.2363 452.953 70.9007 455.628C69.488 456.326 68.0352 456.943 66.5498 457.477C67.0294 457.39 67.5247 457.452 67.9666 457.654C69.7351 458.578 67.2934 462.669 69.2226 464.41C68.2178 463.151 69.2829 461.047 69.4337 460.771C69.8155 459.985 70.2777 459.532 74.2066 456.916C74.709 456.582 76.5478 455.392 79.0599 453.966C79.8944 453.407 80.8335 453.016 81.8232 452.815C82.5467 452.697 84.687 452.363 85.8425 453.72C86.2385 454.282 86.4646 454.941 86.4949 455.623C86.5251 456.305 86.3582 456.982 86.0133 457.575C85.4406 458.608 84.687 458.736 82.7476 459.867C79.6628 461.656 79.8336 462.335 76.8794 463.879C75.6241 464.643 74.2091 465.12 72.7395 465.276C74.7492 465.276 75.6134 464.292 76.2564 464.784C76.8995 465.276 76.4474 466.161 76.377 468.226C76.6684 467.557 77.0302 467.242 79.1403 465.689C81.783 463.722 83.0189 462.846 85.0085 461.509C86.9981 460.171 87.3598 459.955 87.9326 459.788C88.5053 459.621 91.6002 458.736 93.0471 460.604C93.4645 461.281 93.6638 462.065 93.619 462.855C93.5742 463.644 93.2873 464.402 92.7959 465.03C92.2193 465.652 91.4994 466.131 90.6958 466.426C90.2035 466.682 88.857 467.695 86.1741 469.701C84.6367 470.862 83.6017 471.668 82.8381 472.189C83.0157 472.112 83.2066 472.069 83.4008 472.061C83.9084 472.024 84.415 472.146 84.8457 472.412C85.2763 472.678 85.6082 473.072 85.7923 473.537C85.9329 474.304 85.1492 474.658 84.5865 475.661C84.9482 475.041 85.521 474.677 87.1689 473.34C88.244 472.474 91.6605 469.721 93.7003 468.01C95.3783 466.603 95.8004 466.18 96.7148 466.043C97.5438 465.941 98.3854 466.072 99.1414 466.42C99.8974 466.768 100.537 467.32 100.985 468.01C101.339 468.696 101.523 469.454 101.523 470.222C101.523 470.991 101.339 471.749 100.985 472.435C100.302 473.91 99.5283 473.822 95.8807 476.782C95.3482 477.205 94.474 477.933 93.1979 478.956C94.0017 478.956 94.6247 479.782 95.4587 480.667C96.8554 482.152 98.6842 483.165 100.232 484.483C102.714 486.587 105.256 488.289 110.411 491.977C123.011 500.956 121.635 500.503 125.604 502.922C129.715 505.643 134.144 507.871 138.797 509.561C144.186 511.34 149.813 512.334 155.497 512.511C162.802 512.973 168.56 513.347 175.724 511.154C182.889 508.961 187.732 505.253 191.671 502.185C196.635 498.31 198.484 495.724 203.86 489.892C210.763 482.398 216.179 476.526 223.454 470.96C231.131 465.181 239.636 460.542 248.695 457.192C252.564 455.756 258.482 453.563 264.652 452.884C272.027 452.077 275.705 451.674 276.579 451.9C276.84 451.979 277.895 452.284 278.468 451.782C279.041 451.281 278.81 450.474 278.719 449.442C278.589 448.055 278.79 446.659 278.719 445.262C278.619 443.551 278.528 441.269 278.438 438.063C274.423 438.244 270.436 438.804 266.531 439.735C255.89 442.449 248.374 446.619 241.159 450.553C235.135 453.729 229.418 457.432 224.077 461.617C215.837 468.157 215.877 470.203 204.231 481.286C191.711 493.206 186.577 495.684 183.13 497.022C179.111 498.566 173.815 500.582 167.304 499.48C161.406 498.497 157.507 495.487 150.724 490.137C147.298 487.433 143.61 484.138 136.908 476.861C129.161 468.442 123.755 461.617 122.589 460.142C104.773 437.522 95.8406 426.222 94.9563 424.737C88.2231 413.326 83.0701 401.09 79.6327 388.349C75.6133 374.453 73.6037 367.421 74.8597 357.616C75.3621 353.623 76.377 349.384 75.3621 349.011C73.3525 348.283 66.0072 362.976 64.4397 366.093C61.1036 372.742 58.9633 378.062 56.6522 383.796C55.0947 387.651 52.8741 393.483 50.3721 400.76C46.5638 411.834 45.9106 415.365 45.5991 417.361C45.4986 417.991 45.3178 422.662 44.9661 431.985C44.8756 434.365 44.8254 436.313 45.8503 438.506C46.614 440.158 47.3777 440.61 48.2318 442.685C48.694 441.574 50.0606 440.719 50.7639 441.043ZM46.6542 439.017C46.3728 438.24 48.272 436.844 49.5682 436.126C51.3166 435.142 51.8893 435.477 54.8435 434.474C57.3255 433.628 57.5566 433.195 59.1844 432.998C59.8576 432.91 62.5908 432.575 63.2037 433.736C63.5956 434.523 62.8219 435.703 62.3195 436.224C61.5861 436.903 60.6748 437.369 59.6868 437.571C57.426 438.319 56.3005 438.693 55.4163 438.899C53.5551 439.409 51.6315 439.667 49.6988 439.666C48.2318 439.607 46.8652 439.607 46.6542 439.017V439.017Z" fill="#63C1C7"/>
<path d="M284.447 453.484V450.996L283.563 443.62L283.512 443.217V443.03V442.931L283.332 441.8L282.99 439.548C282.91 439.027 282.829 438.496 282.729 437.955C282.721 437.911 282.698 437.87 282.663 437.842C282.628 437.813 282.584 437.797 282.538 437.798L280.317 437.925H279.915L278.518 438.004C278.609 441.21 278.699 443.492 278.8 445.203C278.87 446.6 278.669 447.996 278.8 449.383C278.89 450.415 279.051 451.271 278.549 451.723C278.046 452.176 276.921 451.92 276.659 451.841C275.805 451.615 272.108 452.018 264.732 452.825C258.563 453.504 252.674 455.697 248.775 457.132C239.716 460.483 231.211 465.122 223.534 470.901C216.259 476.467 210.843 482.339 203.94 489.833C198.564 495.664 196.715 498.251 191.751 502.126C187.813 505.204 183.009 508.882 175.805 511.095C168.6 513.308 162.883 512.914 155.578 512.452C149.893 512.275 144.266 511.281 138.877 509.502C134.198 507.824 129.741 505.602 125.604 502.883C121.584 500.464 123.011 500.916 110.411 491.937C105.226 488.249 102.714 486.548 100.232 484.443C98.6842 483.125 96.8554 482.112 95.4587 480.627C94.6247 479.742 94.0017 478.926 93.1979 478.916H93.0773C92.5246 478.965 92.2734 479.408 91.9418 479.9C91.6314 480.471 91.1515 480.938 90.5652 481.237C89.9893 481.483 89.3855 481.662 88.7666 481.768H88.5455C87.9757 481.877 87.3883 481.861 86.8255 481.722C86.2626 481.582 85.7383 481.323 85.2899 480.962C85.2296 480.962 85.1894 480.854 85.1391 480.804C85.0889 480.755 84.9281 480.588 84.8377 480.47C84.4075 479.811 84.1438 479.062 84.0687 478.284C83.9936 477.506 84.1091 476.721 84.4056 475.995L84.5865 475.661C85.1492 474.677 85.9329 474.304 85.7923 473.537C85.6082 473.072 85.2763 472.678 84.8457 472.412C84.415 472.146 83.9084 472.023 83.4008 472.061C83.2012 472.077 83.0067 472.13 82.828 472.219C82.5165 472.376 82.2754 472.622 81.8232 472.888C81.7272 472.948 81.6264 473 81.5217 473.045C81.1135 473.233 80.6807 473.365 80.2356 473.438C80.1285 473.433 80.0211 473.433 79.914 473.438C79.4265 473.523 78.9262 473.508 78.4452 473.392C77.9642 473.277 77.513 473.065 77.1206 472.77C77.0618 472.715 77.008 472.656 76.9598 472.592V472.533C76.5177 471.934 76.4775 471.029 76.4172 469.455C76.4172 469.003 76.4172 468.6 76.4172 468.226C76.4876 466.161 76.8694 465.207 76.2966 464.784C75.7239 464.361 74.8296 465.226 72.7797 465.276C72.0161 465.276 70.2677 465.335 69.2628 464.41C67.3336 462.669 69.7753 458.578 68.0068 457.654C67.5649 457.452 67.0696 457.39 66.59 457.477C66.0785 457.566 65.5721 457.681 65.0727 457.821L64.7512 457.89C64.4197 457.956 64.0778 457.956 63.7463 457.89C63.5406 457.855 63.351 457.759 63.2037 457.614C63.0389 457.46 62.9325 457.255 62.9023 457.034C62.9665 455.906 62.8547 454.775 62.5707 453.681C62.3648 452.824 61.9235 452.038 61.2945 451.409C60.7095 450.91 59.9695 450.619 59.1944 450.583C58.6271 450.584 58.0646 450.48 57.5365 450.278C57.4697 450.241 57.4088 450.194 57.3556 450.14L57.2149 450.002C57.2149 450.002 57.1647 450.002 57.1546 449.934C57.108 449.867 57.0708 449.794 57.0441 449.717C56.9393 449.042 57.0628 448.351 57.3958 447.75C57.6671 447.052 57.8982 446.393 57.5264 445.99C57.1546 445.587 56.9537 445.803 55.768 445.744C54.8837 445.744 54.1904 445.675 53.6277 445.616C53.1943 445.585 52.7678 445.492 52.3616 445.341C52.2344 445.284 52.1132 445.215 51.9999 445.134C51.7414 444.93 51.5494 444.657 51.4472 444.347C50.995 443.138 51.5678 441.456 50.7438 441.073C49.9199 440.689 48.6739 441.584 48.2318 442.676C47.8901 443.521 48.2318 444.298 49.0155 446.128C50.4122 449.294 51.1156 450.878 51.4573 451.409C52.6432 453.165 54.1365 454.704 55.8685 455.952C57.4892 457.177 58.9714 458.569 60.2897 460.103C62.0281 462.01 64.5502 464.764 69.926 469.839C72.2472 472.022 76.0454 475.533 80.9791 479.762C83.3706 481.798 86.0033 484.001 88.8972 486.312L89.058 486.44C95.0299 491.334 101.251 495.929 107.698 500.208L107.929 500.365C115.505 505.332 120.841 508.784 128.879 511.99C134.03 514.158 139.428 515.717 144.957 516.632H145.278L145.971 516.74L146.363 516.799C151.198 517.472 156.094 517.627 160.964 517.261H161.134H161.325C168.414 516.504 175.359 514.772 181.954 512.118V512.118L182.959 511.675L183.281 511.528L184.024 511.193L184.426 511.006L185.059 510.702L185.542 510.466L186.074 510.2L186.707 509.876L187.089 509.669C187.451 509.492 187.762 509.315 188.094 509.158L188.405 508.981L189.169 508.558L189.3 508.479L189.712 508.233L190.234 507.928C190.536 507.751 190.887 507.535 191.239 507.289C194.81 505.056 198.172 502.518 201.287 499.707V499.707L201.709 499.303C205.868 495.384 209.712 491.156 213.205 486.656V486.656C215.757 483.509 215.425 483.706 217.033 481.798C220.658 477.675 224.789 474.005 229.332 470.871C234.788 467.129 240.75 464.15 247.047 462.02V462.02C250.189 460.968 253.398 460.117 256.653 459.473L258.402 459.158C259.135 459.021 259.849 458.903 260.542 458.795L262.15 458.539C263.275 458.372 264.36 458.234 265.385 458.096C268.098 457.732 270.409 457.526 272.027 457.398H272.158L273.052 457.25C275.845 456.802 278.664 456.522 281.493 456.415H282.136C284.618 456.198 284.236 455.126 284.216 454.556C284.457 454.113 284.447 453.818 284.447 453.484Z" fill="#B0D4D1"/>
<path d="M302.223 295.127C296.977 291.83 291.203 289.42 285.141 287.997C267.536 283.896 252.765 289.551 247.46 291.931C243.873 293.534 238.125 297.674 226.61 305.945C213.316 315.504 214.079 315.78 207.015 320.451C196.043 327.719 187.753 333.236 175.363 335.941C164.541 338.33 156.714 340.061 150.996 336.924C149.991 336.383 146.977 334.554 143.962 335.449C141.732 336.098 140.506 337.908 139.441 339.383C136.738 343.14 133.191 346.267 130.397 349.955C122.268 360.694 121.806 358.885 118.339 364.707C115.496 369.477 112.672 374.384 113.315 380.442C113.79 383.924 115.174 387.226 117.334 390.031C124.72 400.53 132.687 410.625 141.199 420.272C146.615 426.399 149.62 431.543 156.523 439.204C159.788 442.745 163.406 445.957 167.325 448.793C171.997 452.186 174.358 453.071 175.614 453.464C179.248 454.691 183.151 454.946 186.919 454.202C190.797 453.376 193.45 451.586 196.213 449.53C201.633 445.462 206.754 441.026 211.537 436.254C218.742 429.37 217.727 432.015 232.387 419.781C239.491 413.88 242.265 411.107 249.469 405.766C253.026 403.021 256.776 400.527 260.693 398.302C265.385 395.764 270.277 393.6 275.324 391.831C279.626 390.105 284.048 388.681 288.557 387.572C298.736 385.192 305.981 385.684 305.971 385.192C305.961 384.701 299.731 384.052 292.908 384.543C288.742 384.841 284.618 385.552 280.599 386.668C275.706 388.063 270.987 389.989 266.531 392.411C257.417 397.197 248.684 402.648 240.406 408.717C236.658 411.421 229.433 416.762 220.982 423.96C211.477 432.054 206.724 436.106 204.986 437.896C201.895 441.212 198.411 444.154 194.606 446.659C190.235 449.511 187.863 450.16 186.487 450.435C182.952 451.087 179.301 450.774 175.936 449.53C172.922 448.547 170.43 446.934 166.219 443.217C161.987 439.434 158.041 435.355 154.413 431.012C141.681 416.378 142.686 417.499 140.194 414.618C138.185 412.297 135.029 408.451 128.639 400.77C120.892 391.447 118.882 388.969 119.012 388.88C119.143 388.792 121.233 391.064 126.971 396.915C131.995 402.01 132.105 402.049 137.521 407.566C143.993 414.165 143.249 413.565 147.228 417.568C154.262 424.61 153.981 423.901 159.457 429.537C162.23 432.389 165.124 435.133 167.917 437.975C170.53 440.64 171.937 442.164 174.61 443.551C176.899 444.859 179.495 445.563 182.146 445.597C184.065 445.597 186.256 445.154 189.682 443.384C193.605 441.295 197.143 438.579 200.152 435.349C204.041 431.415 208.382 427.865 217.064 420.764C219.757 418.561 218.35 419.781 231.382 409.946C241.692 402.137 243.772 400.436 248.716 397.082C251.66 395.116 255.428 392.529 260.693 389.539C268.109 385.32 272.158 383.048 278.107 381.504C282.006 380.521 285.141 380.255 291.26 379.783C296.552 379.381 301.864 379.299 307.167 379.538C312.277 379.778 317.368 380.326 322.41 381.18L302.223 295.127Z" fill="#63C1C7"/>
<path d="M274.088 286.571L279.956 381.072L285.613 380.256L279.886 287.033C279.184 286.875 278.466 286.8 277.745 286.807C277.143 286.728 276.51 286.728 275.897 286.679L274.088 286.571Z" fill="#C2E1DC"/>
<path d="M64.8318 190.792C62.7033 193.069 61.2571 195.876 60.6518 198.905C59.1546 206.625 64.0782 212.526 64.8318 213.411V190.792Z" fill="#64C2C6"/>
<path d="M80.6581 117.239C79.6533 117.239 79.0806 120.11 75.634 132.364C74.6292 135.954 74.4282 136.554 73.8454 138.776C72.6195 143.418 71.8357 147.106 71.2429 149.693C69.9668 155.495 67.9471 164.445 67.3442 171.457C67.3442 172.066 67.0226 175.312 66.5905 180.18C66.4398 181.97 66.2991 183.445 66.2188 184.429C67.562 185.092 68.7734 185.984 69.7959 187.064C71.2433 188.776 72.3509 190.737 73.0616 192.847C73.4913 193.873 73.8669 194.92 74.187 195.984L74.3579 228.616L261.346 229.599C267.034 228.616 271.616 227.701 274.57 227.14C280.81 225.96 287.171 224.731 296.345 223.049C301.288 222.135 304.283 221.613 308.403 221.082C314.633 220.276 317.989 220.846 318.119 220.099C318.28 219.115 312.995 217.04 308.071 216.568C306.785 216.45 304.866 216.371 303.047 216.391C301.921 216.391 300.555 216.45 297.842 216.568C296.345 216.697 294.841 216.727 293.34 216.657C292.828 216.657 291.883 216.489 290.014 216.244L287.683 215.939C286.126 215.722 281.523 215.545 270.169 215.506L220.169 215.378L141.621 215.132L97.6598 214.473H86.7775C85.1598 162.104 84.8784 142.199 85.1799 138.009C85.3689 135.469 85.3151 132.918 85.0191 130.387C84.7422 128.112 84.2648 125.865 83.5922 123.67C82.3965 119.717 81.6328 117.248 80.6581 117.239Z" fill="#64C2C6"/>
<path d="M262.06 215.457H265.074L266.802 228.714L263.728 229.127L262.06 215.457Z" fill="#BBE0E7"/>
<path d="M246.455 233.533H75.6338V235.628H246.455V233.533Z" fill="#64C2C6"/>
<path d="M82.5469 110.787C83.6522 107.935 85.3403 103.814 87.6916 98.9854C97.2371 79.3901 110.739 61.89 127.382 47.5405C131.221 44.2754 150.554 28.1565 174.197 19.8364C177.101 18.853 183.773 16.6205 197.138 12.2146C210.2 7.91686 216.782 5.75325 219.163 5.17301C230.216 2.45865 238.969 1.84891 253.237 0.826108C263.496 0.0885115 273.314 0 274.761 0H278.951L279.111 2.21279C268.636 1.97193 258.159 2.63009 247.801 4.17971C239.497 5.55792 231.318 7.58375 223.343 10.2378C215.978 12.667 215.767 13.3161 215.807 13.5226C216.008 14.5061 224.017 13.5226 239.592 12.5391C244.435 12.2441 252.082 12.0671 267.395 11.713C291.089 11.1721 266.39 12.1457 284.638 12.6965C287.361 12.785 290.898 12.8538 294.355 14.9978C296.183 16.1791 297.773 17.6792 299.047 19.4234C300.159 21.0544 301.057 22.8154 301.72 24.6652C304.303 30.2119 305.006 33.4475 306.744 38.1091C308.483 42.7707 309.126 43.1445 312.11 49.5763C315.094 56.0081 316.953 61.0336 319.144 66.9541C321.405 73.0909 321.093 75.6774 330.026 102.526C332.428 109.754 333.895 113.767 334.719 120.228C335.613 127.28 334.96 131.125 335.724 141.864C336.105 147.313 336.658 151.748 337.06 154.649L342.084 152.682L319.144 187.595L360 195.955L353.308 207.914L92.0526 208.897L91.1281 139.445C91.1281 137.429 91.1281 135.777 91.1281 134.646C91.1281 130.869 91.2286 129.483 91.1281 126.778C91.1351 125.256 91.0073 123.735 90.7463 122.234C90.2624 120.096 89.3691 118.068 88.1136 116.255C86.8436 114.363 85.2493 112.699 83.401 111.338L82.5469 110.787Z" fill="#64C2C6"/>
<path d="M258.894 208.278C258.63 206.732 258.472 205.172 258.422 203.606C258.512 200.252 258.964 199.672 259.296 199.505C259.829 199.22 260.632 199.712 260.904 200.144C261.395 200.9 261.708 201.753 261.818 202.642C262.301 204.484 262.597 206.369 262.702 208.268L258.894 208.278Z" fill="#C5E1EA"/>
<path d="M197.137 12.2146C193.895 13.2702 190.629 14.3487 187.34 15.4502C177.513 18.7448 172.509 20.3675 168.912 21.8525C163.599 24.0341 158.437 26.5505 153.458 29.3858C130.551 42.1746 111.223 60.2978 97.1871 82.1485C96.323 83.4762 94.4841 85.8955 94.7152 86.0824C94.9463 86.2692 98.0613 82.9943 102.231 78.6376C102.231 78.6376 108.26 72.3926 113.918 66.718C115.666 64.9675 120.127 60.8173 141.048 51.2285C147.248 48.3961 155.688 45.0622 170.942 38.9352C172.328 38.3747 173.182 38.0403 174.458 37.4601C176.619 36.4766 177.473 35.9554 179.483 35.1194C182.577 33.8507 183.401 33.9393 184.004 34.136C184.89 34.4798 185.609 35.141 186.014 35.9849C186.243 36.5655 186.327 37.191 186.261 37.8099C186.194 38.4288 185.979 39.0234 185.632 39.545C184.999 40.5285 184.145 40.8038 182.246 41.6398C180.668 42.3282 179.181 43.2035 177.594 43.8526C173.343 45.5933 165.023 49.5271 165.284 50.245C165.405 50.5696 167.585 50.0975 171.946 49.1337C176.971 48.0323 178.628 47.4914 183.622 46.4292C184.326 46.2817 186.798 45.7703 190.033 45.3277C190.988 45.1999 192.264 45.1212 194.806 44.954C197.348 44.7868 198.082 44.8065 198.826 45.3277C199.687 46.059 200.236 47.0806 200.363 48.1896C200.612 49.4618 200.525 50.7751 200.112 52.0054C199.589 53.6183 198.986 53.8544 197.218 56.6769C195.208 59.8338 195.449 60.3944 195.59 60.6107C195.992 61.2697 197.158 61.0533 198.976 61.1025C201.238 61.259 203.474 61.6715 205.638 62.3318C208.25 63.1407 210.679 64.4327 212.793 66.1378C215.357 68.0427 217.605 70.3252 219.455 72.904C221.985 76.391 223.935 80.248 225.232 84.3318C226.291 87.4193 227.087 90.5869 227.614 93.8026C228.054 96.1134 228.306 98.4549 228.368 100.805C228.421 102.083 228.549 103.357 228.749 104.621C228.867 105.62 229.076 106.608 229.372 107.571C229.707 108.645 230.172 109.675 230.759 110.639C230.759 110.639 233.06 115.37 237.662 124.782C240.258 130.135 242.523 135.635 244.445 141.255C245.319 143.753 246.655 147.795 248.967 154.04C251.398 160.609 251.931 161.602 252.232 161.534C252.865 161.406 252.413 156.754 251.107 147.155C249.389 134.636 248.534 128.371 247.087 121.094C244.33 107.531 240.723 94.1467 236.286 81.0176C235.442 78.4704 231.995 69.6783 225.082 52.1235C223.058 46.7076 220.623 41.4478 217.797 36.3881C215.721 32.6901 213.415 29.12 210.894 25.6979C208.889 22.9072 206.661 20.2764 204.232 17.8302C202.685 16.305 201.051 14.8669 199.338 13.5226L197.137 12.2146Z" fill="#C5E1EA"/>
<path d="M106.623 82.4535C106.884 82.7092 108.964 80.8603 115.244 75.8938C120.017 72.1271 122.539 70.1307 125.122 68.272C134.165 61.791 141.048 59.0078 140.787 58.4373C140.526 57.8669 136.516 59.4208 134.085 60.4043C130.315 62.0094 126.723 63.9866 123.363 66.305C120.088 68.413 117.008 70.7989 114.159 73.4351C109.858 77.4673 106.231 82.0798 106.623 82.4535Z" fill="#C5E1EA"/>
<path d="M182.487 55.8212C182.487 55.9393 183.874 55.3787 184.828 56.0671C185.783 56.7555 185.471 58.1324 186.004 58.2799C186.808 58.4864 188.878 55.6246 188.174 54.6706C187.31 53.4904 182.427 55.5852 182.487 55.8212Z" fill="#C5E1EA"/>
<path d="M191.14 271C190.551 270.807 189.958 270.627 189.361 270.462C189.461 270.068 189.553 269.679 189.635 269.297C190.982 263.021 190.102 257.965 187.095 256.301C184.212 254.705 179.497 256.369 174.735 260.347C174.265 260.74 173.807 261.144 173.358 261.559C173.059 261.283 172.753 261.013 172.443 260.748C167.452 256.494 162.45 254.701 159.446 256.37C156.565 257.971 155.713 262.724 156.925 268.672C157.046 269.261 157.182 269.847 157.333 270.429C156.625 270.622 155.942 270.828 155.288 271.047C149.437 273.005 145.7 276.075 145.7 279.258C145.7 282.546 149.712 285.845 155.806 287.844C156.3 288.006 156.798 288.155 157.3 288.293C157.137 288.92 156.992 289.552 156.866 290.187C155.71 296.032 156.613 300.672 159.486 302.263C162.453 303.906 167.433 302.217 172.282 298.148C172.675 297.817 173.059 297.477 173.435 297.128C173.92 297.577 174.418 298.013 174.929 298.436C179.626 302.316 184.265 303.883 187.135 302.288C190.099 300.641 191.062 295.655 189.812 289.59C189.713 289.115 189.603 288.642 189.48 288.172C189.83 288.073 190.173 287.97 190.508 287.864C196.844 285.848 200.966 282.59 200.966 279.258C200.966 276.063 197.108 272.973 191.14 271V271ZM189.765 285.712C189.463 285.808 189.153 285.901 188.837 285.991C188.138 283.865 187.194 281.605 186.039 279.269C187.141 276.99 188.049 274.758 188.728 272.646C189.294 272.803 189.842 272.969 190.371 273.143C195.485 274.834 198.605 277.333 198.605 279.258C198.605 281.309 195.236 283.972 189.765 285.712V285.712ZM187.496 290.03C188.049 292.712 188.128 295.137 187.761 297.033C187.432 298.736 186.77 299.872 185.952 300.327C184.21 301.295 180.486 300.037 176.469 296.718C175.994 296.325 175.53 295.919 175.079 295.501C176.636 293.866 178.193 291.966 179.712 289.855C182.383 289.627 184.907 289.255 187.196 288.747C187.307 289.172 187.406 289.6 187.496 290.03V290.03ZM164.541 300.16C162.84 300.736 161.485 300.753 160.665 300.299C158.922 299.334 158.197 295.608 159.186 290.61C159.303 290.019 159.438 289.432 159.589 288.848C161.853 289.329 164.359 289.675 167.037 289.883C168.566 291.949 170.167 293.848 171.781 295.51C171.438 295.829 171.087 296.139 170.728 296.441C168.584 298.241 166.435 299.517 164.541 300.16V300.16ZM156.57 285.7C153.875 284.815 151.649 283.666 150.124 282.412C148.753 281.285 148.061 280.166 148.061 279.258C148.061 277.326 151.061 274.862 156.065 273.187C156.673 272.984 157.308 272.792 157.968 272.612C158.659 274.772 159.566 277.03 160.661 279.313C159.552 281.631 158.632 283.925 157.934 286.11C157.476 285.984 157.021 285.847 156.57 285.7V285.7ZM159.242 268.236C158.203 263.14 158.893 259.296 160.629 258.332C162.478 257.304 166.566 258.769 170.875 262.443C171.156 262.683 171.433 262.928 171.705 263.177C170.099 264.833 168.512 266.717 166.997 268.771C164.397 269.002 161.909 269.373 159.622 269.871C159.481 269.329 159.354 268.784 159.242 268.236V268.236ZM183.081 273.888C182.541 272.992 181.98 272.107 181.4 271.234C183.164 271.448 184.853 271.732 186.44 272.08C185.964 273.546 185.37 275.078 184.671 276.649C184.16 275.718 183.63 274.798 183.081 273.888V273.888ZM173.36 264.797C174.448 265.93 175.539 267.194 176.612 268.566C174.436 268.468 172.256 268.467 170.08 268.565C171.154 267.206 172.254 265.943 173.36 264.797ZM163.576 273.903C163.033 274.806 162.513 275.721 162.015 276.647C161.328 275.082 160.74 273.542 160.259 272.056C161.836 271.717 163.518 271.44 165.27 271.23C164.683 272.108 164.118 272.999 163.576 273.903V273.903ZM165.32 287.448C163.51 287.254 161.803 286.991 160.227 286.662C160.715 285.149 161.316 283.577 162.018 281.978C162.518 282.905 163.04 283.82 163.585 284.723C164.145 285.652 164.725 286.561 165.32 287.448ZM173.425 293.879C172.306 292.72 171.19 291.438 170.1 290.059C171.158 290.098 172.237 290.119 173.333 290.119C174.459 290.119 175.573 290.095 176.669 290.048C175.593 291.452 174.506 292.736 173.425 293.879ZM184.693 281.896C185.432 283.513 186.055 285.076 186.549 286.564C184.947 286.915 183.217 287.197 181.394 287.407C181.978 286.518 182.544 285.618 183.09 284.708C183.646 283.782 184.181 282.845 184.693 281.896V281.896ZM181.045 283.575C180.208 284.971 179.324 286.341 178.394 287.682C176.71 287.796 175.022 287.853 173.333 287.852C171.613 287.852 169.94 287.801 168.329 287.701C167.375 286.363 166.474 284.991 165.628 283.588H165.628C164.786 282.192 163.999 280.766 163.27 279.312C163.998 277.859 164.782 276.432 165.621 275.035L165.621 275.035C166.46 273.638 167.354 272.272 168.301 270.94C169.944 270.821 171.629 270.758 173.333 270.758H173.333C175.044 270.758 176.732 270.821 178.375 270.941C179.312 272.271 180.2 273.633 181.038 275.023C181.88 276.417 182.674 277.837 183.42 279.28C182.682 280.739 181.89 282.171 181.045 283.575V283.575ZM185.916 258.264C187.766 259.289 188.486 263.421 187.323 268.84C187.249 269.185 187.166 269.537 187.075 269.894C184.782 269.386 182.292 269.008 179.685 268.774C178.167 266.698 176.593 264.81 175.014 263.176C175.428 262.793 175.851 262.42 176.285 262.057C180.365 258.648 184.178 257.302 185.916 258.264V258.264ZM173.333 274.52C176.058 274.52 178.268 276.642 178.268 279.258C178.268 281.875 176.058 283.996 173.333 283.996C170.607 283.996 168.398 281.875 168.398 279.258C168.398 276.642 170.607 274.52 173.333 274.52V274.52Z" fill="#00D8FF"/>
</g>
<defs>
<clipPath id="clip0_986_7">
<rect width="360" height="600" fill="white"/>
</clipPath>
</defs>
</svg>
