<svg width="250" height="249" viewBox="0 0 250 249" fill="none" xmlns="http://www.w3.org/2000/svg">
<rect width="250" height="249" rx="10" fill="#64C2C6"/>
<path d="M72.125 136V122.125H89.25C93.5417 122.125 96.875 120.917 99.25 118.5C101.625 116.083 102.812 112.708 102.812 108.375C102.812 103.833 101.625 100.333 99.25 97.875C96.875 95.375 93.5417 94.125 89.25 94.125H72.375L70.875 80.25H89.25C98.6667 80.25 105.938 82.5833 111.062 87.25C116.188 91.9167 118.75 98.5417 118.75 107.125C118.75 116.25 116.188 123.354 111.062 128.438C105.938 133.479 98.6667 136 89.25 136H72.125ZM58.125 169V80.25H73V169H58.125ZM104.188 169L86.1875 127.25H102.125L122 169H104.188ZM127.188 169L152.812 80.25H172.188L197.812 169H181.875L163.062 97.5625H161.938L143.125 169H127.188ZM139.688 150.25V136.375H184.688V150.25H139.688Z" fill="#F5F5F5"/>
</svg>
